%FSLAX24Y24*%
%MOIN*%
G70*
G01*
G75*
%ADD10C,0.0100*%
%ADD11R,0.0394X0.0433*%
%ADD12R,0.0374X0.0354*%
%ADD13R,0.0630X0.0335*%
%ADD14R,0.0315X0.0118*%
%ADD15R,0.0118X0.0315*%
%ADD16R,0.0571X0.0217*%
%ADD17R,0.0236X0.0787*%
%ADD18R,0.0118X0.0787*%
%ADD19R,0.0591X0.0512*%
%ADD20R,0.0354X0.0374*%
%ADD21R,0.0354X0.0374*%
%ADD22R,0.1063X0.0630*%
%ADD23R,0.0433X0.0394*%
%ADD24R,0.0315X0.0630*%
%ADD25R,0.0709X0.0630*%
%ADD26R,0.0433X0.0394*%
%ADD27R,0.0940X0.1000*%
%ADD28R,0.1300X0.1600*%
%ADD29R,0.6693X0.2500*%
%ADD30R,0.0787X0.0787*%
%ADD31R,0.0236X0.0866*%
%ADD32R,0.0236X0.0866*%
%ADD33R,0.0709X0.1063*%
%ADD34R,0.0394X0.0433*%
%ADD35R,0.0374X0.0354*%
%ADD36R,0.0630X0.0709*%
%ADD37C,0.0400*%
%ADD38C,0.0300*%
%ADD39C,0.0200*%
%ADD40C,0.0500*%
%ADD41C,0.0591*%
%ADD42R,0.0591X0.0591*%
%ADD43C,0.1181*%
%ADD44C,0.1181*%
%ADD45C,0.1575*%
%ADD46C,0.0394*%
%ADD47C,0.0394*%
%ADD48R,0.0315X0.0315*%
%ADD49C,0.0098*%
%ADD50C,0.0079*%
%ADD51C,0.0080*%
%ADD52R,0.0474X0.0513*%
%ADD53R,0.0454X0.0434*%
%ADD54R,0.0710X0.0415*%
%ADD55R,0.0395X0.0198*%
%ADD56R,0.0198X0.0395*%
%ADD57R,0.0651X0.0297*%
%ADD58R,0.0316X0.0867*%
%ADD59R,0.0198X0.0867*%
%ADD60R,0.0671X0.0592*%
%ADD61R,0.0434X0.0454*%
%ADD62R,0.0434X0.0454*%
%ADD63R,0.1143X0.0710*%
%ADD64R,0.0513X0.0474*%
%ADD65R,0.0395X0.0710*%
%ADD66R,0.0789X0.0710*%
%ADD67R,0.0513X0.0474*%
%ADD68R,0.1020X0.1080*%
%ADD69R,0.1380X0.1680*%
%ADD70R,0.6773X0.2580*%
%ADD71R,0.0867X0.0867*%
%ADD72R,0.0316X0.0946*%
%ADD73R,0.0316X0.0946*%
%ADD74R,0.0789X0.1143*%
%ADD75R,0.0474X0.0513*%
%ADD76R,0.0454X0.0434*%
%ADD77R,0.0710X0.0789*%
%ADD78C,0.0671*%
%ADD79R,0.0671X0.0671*%
%ADD80C,0.1261*%
%ADD81C,0.1261*%
%ADD82C,0.1655*%
%ADD83C,0.0474*%
%ADD84C,0.0474*%
%ADD85R,0.0395X0.0395*%
D52*
X10199Y-30335D02*
D03*
Y-29665D02*
D03*
X13001D02*
D03*
Y-30335D02*
D03*
X11000Y-31665D02*
D03*
X12400D02*
D03*
X6200Y-13115D02*
D03*
X2000Y-17265D02*
D03*
X3000D02*
D03*
X6200Y-17315D02*
D03*
X7200D02*
D03*
Y-13115D02*
D03*
X2000D02*
D03*
X3000D02*
D03*
X10550Y-21935D02*
D03*
Y-21265D02*
D03*
X13500Y-22535D02*
D03*
Y-21865D02*
D03*
X12400Y-32335D02*
D03*
X11000D02*
D03*
D57*
X12373Y-21974D02*
D03*
Y-21226D02*
D03*
X11527D02*
D03*
Y-21600D02*
D03*
Y-21974D02*
D03*
D64*
X15235Y-21800D02*
D03*
X3935Y-8600D02*
D03*
Y-9600D02*
D03*
D67*
X14565Y-21800D02*
D03*
X3265Y-8600D02*
D03*
Y-9600D02*
D03*
D75*
X6200Y-13785D02*
D03*
X2000Y-17935D02*
D03*
X3000D02*
D03*
X6200Y-17985D02*
D03*
X7200D02*
D03*
Y-13785D02*
D03*
X2000D02*
D03*
X3000D02*
D03*
D77*
X16449Y-21000D02*
D03*
X17551D02*
D03*
D78*
X15700Y-15000D02*
D03*
X14700D02*
D03*
X17500Y-27000D02*
D03*
X18500D02*
D03*
X15700Y-8600D02*
D03*
X14700D02*
D03*
X15700Y-9600D02*
D03*
X14700D02*
D03*
X15700Y-10600D02*
D03*
X14700D02*
D03*
X15700Y-11600D02*
D03*
X14700D02*
D03*
X15700Y-12600D02*
D03*
X7500Y-29600D02*
D03*
X6500Y-28600D02*
D03*
Y-29600D02*
D03*
X5500Y-28600D02*
D03*
Y-29600D02*
D03*
X15700Y-16000D02*
D03*
X14700Y-14000D02*
D03*
X15700D02*
D03*
D79*
X19500Y-27000D02*
D03*
X14700Y-12600D02*
D03*
X7500Y-28600D02*
D03*
X14700Y-16000D02*
D03*
D80*
X11400Y-24650D02*
D03*
Y-1250D02*
D03*
D81*
Y-27603D02*
D03*
Y-4203D02*
D03*
D82*
X11358Y-17783D02*
D03*
D83*
X12700Y-30350D02*
D03*
X10500D02*
D03*
X17000Y-15500D02*
D03*
X17500Y-14500D02*
D03*
X20100Y-25350D02*
D03*
Y-21500D02*
D03*
Y-18000D02*
D03*
X12650Y-20450D02*
D03*
X10650Y-23000D02*
D03*
X11600Y-29050D02*
D03*
X12400Y-33200D02*
D03*
X7250Y-11900D02*
D03*
X15800Y-22384D02*
D03*
X3035Y-26336D02*
D03*
X5500Y-18600D02*
D03*
X8150Y-23300D02*
D03*
X2100Y-22400D02*
D03*
X3500Y-25600D02*
D03*
X10000Y-16000D02*
D03*
X14000Y-17550D02*
D03*
X10500Y-10600D02*
D03*
X9500Y-9600D02*
D03*
X15863Y-21732D02*
D03*
X4500Y-14450D02*
D03*
X3500Y-21500D02*
D03*
X8200Y-21100D02*
D03*
X6300Y-26550D02*
D03*
X3100Y-7700D02*
D03*
X3050Y-19600D02*
D03*
X15000Y-26600D02*
D03*
X500Y-27601D02*
D03*
X2550Y-19600D02*
D03*
X16250Y-24450D02*
D03*
X2550Y-15600D02*
D03*
X17500Y-7600D02*
D03*
X2550Y-11600D02*
D03*
X15450Y-22900D02*
D03*
X15485Y-23484D02*
D03*
X13500Y-23050D02*
D03*
X10500Y-13600D02*
D03*
X11500Y-10600D02*
D03*
X4000Y-15600D02*
D03*
X7250D02*
D03*
X12500Y-9600D02*
D03*
X11950D02*
D03*
X17700Y-18600D02*
D03*
X13500Y-19600D02*
D03*
X2000Y-8600D02*
D03*
X5150D02*
D03*
X15365Y-28735D02*
D03*
X16700Y-22035D02*
D03*
X17700D02*
D03*
X17050Y-23085D02*
D03*
X7250Y-14474D02*
D03*
X3050D02*
D03*
X7250Y-18674D02*
D03*
X9000Y-500D02*
D03*
X15600Y-20250D02*
D03*
D84*
X17250Y-20850D02*
D03*
X18000Y-24000D02*
D03*
X6250Y-12000D02*
D03*
X5000D02*
D03*
X18000Y-6000D02*
D03*
X15135Y-25319D02*
D03*
X18985Y-22384D02*
D03*
X15800Y-3885D02*
D03*
X16700Y-2635D02*
D03*
D85*
X11403Y-30250D02*
D03*
X11797D02*
D03*
X11600Y-29600D02*
D03*
X13450Y-20797D02*
D03*
Y-20403D02*
D03*
X14100Y-20600D02*
D03*
M02*
