%FSLAX24Y24*%
%MOIN*%
G70*
G01*
G75*
%ADD10C,0.0100*%
%ADD11R,0.0394X0.0433*%
%ADD12R,0.0374X0.0354*%
%ADD13R,0.0630X0.0335*%
%ADD14R,0.0315X0.0118*%
%ADD15R,0.0118X0.0315*%
%ADD16R,0.0571X0.0217*%
%ADD17R,0.0236X0.0787*%
%ADD18R,0.0118X0.0787*%
%ADD19R,0.0591X0.0512*%
%ADD20R,0.0354X0.0374*%
%ADD21R,0.0354X0.0374*%
%ADD22R,0.1063X0.0630*%
%ADD23R,0.0433X0.0394*%
%ADD24R,0.0315X0.0630*%
%ADD25R,0.0709X0.0630*%
%ADD26R,0.0433X0.0394*%
%ADD27R,0.0940X0.1000*%
%ADD28R,0.1300X0.1600*%
%ADD29R,0.6693X0.2500*%
%ADD30R,0.0787X0.0787*%
%ADD31R,0.0236X0.0866*%
%ADD32R,0.0236X0.0866*%
%ADD33R,0.0709X0.1063*%
%ADD34R,0.0394X0.0433*%
%ADD35R,0.0374X0.0354*%
%ADD36R,0.0630X0.0709*%
%ADD37C,0.0400*%
%ADD38C,0.0300*%
%ADD39C,0.0200*%
%ADD40C,0.0500*%
%ADD41C,0.0591*%
%ADD42R,0.0591X0.0591*%
%ADD43C,0.1181*%
%ADD44C,0.1181*%
%ADD45C,0.1575*%
%ADD46C,0.0394*%
%ADD47C,0.0394*%
%ADD48R,0.0315X0.0315*%
%ADD49C,0.0098*%
%ADD50C,0.0079*%
%ADD51C,0.0080*%
D10*
X16439Y-21749D02*
G03*
X16439Y-21754I-62J-5D01*
G01*
X5421Y-24515D02*
G03*
X5420Y-24523I-44J0D01*
G01*
X9400Y-27603D02*
Y-24603D01*
X13400Y-27603D02*
Y-24603D01*
X9400Y-27603D02*
X13400D01*
X9400Y-24603D02*
X13400D01*
X9400Y-4203D02*
Y-1203D01*
X13400Y-4203D02*
Y-1203D01*
X9400Y-4203D02*
X13400D01*
X9400Y-1203D02*
X13400D01*
X16200Y-23546D02*
Y-21577D01*
Y-23546D02*
X18168D01*
Y-21577D01*
X16200D02*
X18168D01*
X6384Y-24681D02*
Y-23500D01*
X5203Y-24681D02*
X6384D01*
X5203Y-24681D02*
Y-23500D01*
X6384D01*
X6600Y-5950D02*
Y-2400D01*
X8350Y-5950D02*
Y-2400D01*
X6600D02*
X8350D01*
X6600Y-5950D02*
X8350D01*
X20400Y-35650D02*
Y-28400D01*
X13400D02*
X20400D01*
X13400Y-35650D02*
Y-28400D01*
Y-35650D02*
X20400D01*
X8450Y-24320D02*
Y-23720D01*
X8750D01*
X8850Y-23820D01*
Y-24020D01*
X8750Y-24120D01*
X8450D01*
X9450Y-24320D02*
X9050D01*
X9450Y-23920D01*
Y-23820D01*
X9350Y-23720D01*
X9150D01*
X9050Y-23820D01*
X11400Y-43270D02*
Y-42670D01*
X11700D01*
X11800Y-42770D01*
Y-42970D01*
X11700Y-43070D01*
X11400D01*
X12000Y-43270D02*
X12200D01*
X12100D01*
Y-42670D01*
X12000Y-42770D01*
X10250Y-20600D02*
Y-20000D01*
X10550D01*
X10650Y-20100D01*
Y-20300D01*
X10550Y-20400D01*
X10250D01*
X10450D02*
X10650Y-20600D01*
X10950Y-20100D02*
Y-20200D01*
X10850D01*
X11050D01*
X10950D01*
Y-20500D01*
X11050Y-20600D01*
X11650D02*
X11450D01*
X11350Y-20500D01*
Y-20300D01*
X11450Y-20200D01*
X11650D01*
X11750Y-20300D01*
Y-20400D01*
X11350D01*
X11949Y-20600D02*
X12249D01*
X12349Y-20500D01*
X12249Y-20400D01*
X12049D01*
X11949Y-20300D01*
X12049Y-20200D01*
X12349D01*
X12649Y-20100D02*
Y-20200D01*
X12549D01*
X12749D01*
X12649D01*
Y-20500D01*
X12749Y-20600D01*
X3400Y-17899D02*
Y-17399D01*
X3300Y-17299D01*
X3100D01*
X3000Y-17399D01*
Y-17899D01*
X2800Y-17799D02*
X2700Y-17899D01*
X2500D01*
X2400Y-17799D01*
Y-17699D01*
X2500Y-17599D01*
X2400Y-17499D01*
Y-17399D01*
X2500Y-17299D01*
X2700D01*
X2800Y-17399D01*
Y-17499D01*
X2700Y-17599D01*
X2800Y-17699D01*
Y-17799D01*
X2700Y-17599D02*
X2500D01*
X7450Y-17950D02*
Y-17450D01*
X7350Y-17350D01*
X7150D01*
X7050Y-17450D01*
Y-17950D01*
X6850D02*
X6450D01*
Y-17850D01*
X6850Y-17450D01*
Y-17350D01*
X7450Y-13750D02*
Y-13250D01*
X7350Y-13150D01*
X7150D01*
X7050Y-13250D01*
Y-13750D01*
X6450D02*
X6650Y-13650D01*
X6850Y-13450D01*
Y-13250D01*
X6750Y-13150D01*
X6550D01*
X6450Y-13250D01*
Y-13350D01*
X6550Y-13450D01*
X6850D01*
X3300Y-13750D02*
Y-13250D01*
X3200Y-13150D01*
X3000D01*
X2900Y-13250D01*
Y-13750D01*
X2300D02*
X2700D01*
Y-13450D01*
X2500Y-13550D01*
X2400D01*
X2300Y-13450D01*
Y-13250D01*
X2400Y-13150D01*
X2600D01*
X2700Y-13250D01*
X18650Y-26700D02*
X18450D01*
X18550D01*
Y-27200D01*
X18450Y-27300D01*
X18350D01*
X18250Y-27200D01*
X18850Y-27300D02*
Y-26700D01*
X19150D01*
X19250Y-26800D01*
Y-27000D01*
X19150Y-27100D01*
X18850D01*
X19750Y-27300D02*
Y-26700D01*
X19450Y-27000D01*
X19849D01*
X2530Y-7270D02*
Y-7770D01*
X2630Y-7870D01*
X2830D01*
X2930Y-7770D01*
Y-7270D01*
X3530Y-7870D02*
X3130D01*
X3530Y-7470D01*
Y-7370D01*
X3430Y-7270D01*
X3230D01*
X3130Y-7370D01*
X3730D02*
X3830Y-7270D01*
X4030D01*
X4129Y-7370D01*
Y-7770D01*
X4030Y-7870D01*
X3830D01*
X3730Y-7770D01*
Y-7370D01*
X13845Y-27455D02*
X13645D01*
X13745D01*
Y-27955D01*
X13645Y-28055D01*
X13545D01*
X13445Y-27955D01*
X14045Y-28055D02*
X14245D01*
X14145D01*
Y-27455D01*
X14045Y-27555D01*
X7045Y-1555D02*
X6945Y-1455D01*
X6745D01*
X6645Y-1555D01*
Y-1955D01*
X6745Y-2055D01*
X6945D01*
X7045Y-1955D01*
X7245Y-2055D02*
X7445D01*
X7345D01*
Y-1455D01*
X7245Y-1555D01*
X7745Y-1455D02*
X8145D01*
Y-1555D01*
X7745Y-1955D01*
Y-2055D01*
X19150Y-22869D02*
X19050Y-22769D01*
X18850D01*
X18750Y-22869D01*
Y-23269D01*
X18850Y-23369D01*
X19050D01*
X19150Y-23269D01*
X19350Y-23369D02*
X19550D01*
X19450D01*
Y-22769D01*
X19350Y-22869D01*
X17000Y-20569D02*
X16900Y-20669D01*
Y-20869D01*
X17000Y-20969D01*
X17400D01*
X17500Y-20869D01*
Y-20669D01*
X17400Y-20569D01*
X17000Y-20369D02*
X16900Y-20270D01*
Y-20070D01*
X17000Y-19970D01*
X17100D01*
X17200Y-20070D01*
Y-20170D01*
Y-20070D01*
X17300Y-19970D01*
X17400D01*
X17500Y-20070D01*
Y-20270D01*
X17400Y-20369D01*
X14650Y-24669D02*
X14550Y-24569D01*
X14350D01*
X14250Y-24669D01*
Y-25069D01*
X14350Y-25169D01*
X14550D01*
X14650Y-25069D01*
X15150Y-25169D02*
Y-24569D01*
X14850Y-24869D01*
X15250D01*
X18000Y-24469D02*
X18100Y-24369D01*
Y-24169D01*
X18000Y-24069D01*
X17600D01*
X17500Y-24169D01*
Y-24369D01*
X17600Y-24469D01*
X18100Y-25069D02*
X18000Y-24869D01*
X17800Y-24669D01*
X17600D01*
X17500Y-24769D01*
Y-24969D01*
X17600Y-25069D01*
X17700D01*
X17800Y-24969D01*
Y-24669D01*
X15600Y-5435D02*
X15500Y-5535D01*
Y-5735D01*
X15600Y-5835D01*
X16000D01*
X16100Y-5735D01*
Y-5535D01*
X16000Y-5435D01*
X16100Y-5235D02*
Y-5035D01*
Y-5135D01*
X15500D01*
X15600Y-5235D01*
X16100Y-4735D02*
Y-4535D01*
Y-4635D01*
X15500D01*
X15600Y-4735D01*
X17100Y-3185D02*
X17000Y-3085D01*
X16800D01*
X16700Y-3185D01*
Y-3585D01*
X16800Y-3685D01*
X17000D01*
X17100Y-3585D01*
X17300Y-3685D02*
X17500D01*
X17400D01*
Y-3085D01*
X17300Y-3185D01*
X17800D02*
X17900Y-3085D01*
X18100D01*
X18200Y-3185D01*
Y-3285D01*
X18100Y-3385D01*
X18000D01*
X18100D01*
X18200Y-3485D01*
Y-3585D01*
X18100Y-3685D01*
X17900D01*
X17800Y-3585D01*
X15000Y-1135D02*
X15100Y-1035D01*
Y-835D01*
X15000Y-735D01*
X14600D01*
X14500Y-835D01*
Y-1035D01*
X14600Y-1135D01*
X14500Y-1334D02*
Y-1534D01*
Y-1434D01*
X15100D01*
X15000Y-1334D01*
X14500Y-2134D02*
X15100D01*
X14800Y-1834D01*
Y-2234D01*
X2600Y-23751D02*
X2700Y-23651D01*
Y-23451D01*
X2600Y-23351D01*
X2200D01*
X2100Y-23451D01*
Y-23651D01*
X2200Y-23751D01*
X2600Y-23951D02*
X2700Y-24051D01*
Y-24251D01*
X2600Y-24351D01*
X2500D01*
X2400Y-24251D01*
Y-24151D01*
Y-24251D01*
X2300Y-24351D01*
X2200D01*
X2100Y-24251D01*
Y-24051D01*
X2200Y-23951D01*
X2600Y-24551D02*
X2700Y-24651D01*
Y-24851D01*
X2600Y-24951D01*
X2200D01*
X2100Y-24851D01*
Y-24651D01*
X2200Y-24551D01*
X2600D01*
X3400Y-24401D02*
X3300Y-24501D01*
Y-24701D01*
X3400Y-24801D01*
X3800D01*
X3900Y-24701D01*
Y-24501D01*
X3800Y-24401D01*
X3400Y-24201D02*
X3300Y-24101D01*
Y-23901D01*
X3400Y-23802D01*
X3500D01*
X3600Y-23901D01*
Y-24001D01*
Y-23901D01*
X3700Y-23802D01*
X3800D01*
X3900Y-23901D01*
Y-24101D01*
X3800Y-24201D01*
X3900Y-23602D02*
Y-23402D01*
Y-23502D01*
X3300D01*
X3400Y-23602D01*
X7200Y-26151D02*
X7300Y-26051D01*
Y-25851D01*
X7200Y-25751D01*
X6800D01*
X6700Y-25851D01*
Y-26051D01*
X6800Y-26151D01*
X7200Y-26351D02*
X7300Y-26451D01*
Y-26651D01*
X7200Y-26751D01*
X7100D01*
X7000Y-26651D01*
Y-26551D01*
Y-26651D01*
X6900Y-26751D01*
X6800D01*
X6700Y-26651D01*
Y-26451D01*
X6800Y-26351D01*
X6700Y-27351D02*
Y-26951D01*
X7100Y-27351D01*
X7200D01*
X7300Y-27251D01*
Y-27051D01*
X7200Y-26951D01*
X7350Y-23601D02*
X7250Y-23501D01*
X7050D01*
X6950Y-23601D01*
Y-24001D01*
X7050Y-24101D01*
X7250D01*
X7350Y-24001D01*
X7550Y-23601D02*
X7650Y-23501D01*
X7850D01*
X7950Y-23601D01*
Y-23701D01*
X7850Y-23801D01*
X7750D01*
X7850D01*
X7950Y-23901D01*
Y-24001D01*
X7850Y-24101D01*
X7650D01*
X7550Y-24001D01*
X8150Y-23601D02*
X8250Y-23501D01*
X8450D01*
X8549Y-23601D01*
Y-23701D01*
X8450Y-23801D01*
X8350D01*
X8450D01*
X8549Y-23901D01*
Y-24001D01*
X8450Y-24101D01*
X8250D01*
X8150Y-24001D01*
X8400Y-25751D02*
X8500Y-25651D01*
Y-25451D01*
X8400Y-25351D01*
X8000D01*
X7900Y-25451D01*
Y-25651D01*
X8000Y-25751D01*
X8400Y-25951D02*
X8500Y-26051D01*
Y-26251D01*
X8400Y-26351D01*
X8300D01*
X8200Y-26251D01*
Y-26151D01*
Y-26251D01*
X8100Y-26351D01*
X8000D01*
X7900Y-26251D01*
Y-26051D01*
X8000Y-25951D01*
X7900Y-26851D02*
X8500D01*
X8200Y-26551D01*
Y-26951D01*
X6800Y-22051D02*
X6700Y-22151D01*
Y-22351D01*
X6800Y-22451D01*
X7200D01*
X7300Y-22351D01*
Y-22151D01*
X7200Y-22051D01*
X6800Y-21851D02*
X6700Y-21751D01*
Y-21551D01*
X6800Y-21451D01*
X6900D01*
X7000Y-21551D01*
Y-21651D01*
Y-21551D01*
X7100Y-21451D01*
X7200D01*
X7300Y-21551D01*
Y-21751D01*
X7200Y-21851D01*
X6700Y-20852D02*
Y-21252D01*
X7000D01*
X6900Y-21052D01*
Y-20952D01*
X7000Y-20852D01*
X7200D01*
X7300Y-20952D01*
Y-21152D01*
X7200Y-21252D01*
X3650Y-22601D02*
X3750Y-22701D01*
X3950D01*
X4050Y-22601D01*
Y-22201D01*
X3950Y-22101D01*
X3750D01*
X3650Y-22201D01*
X3450Y-22601D02*
X3350Y-22701D01*
X3150D01*
X3050Y-22601D01*
Y-22501D01*
X3150Y-22401D01*
X3250D01*
X3150D01*
X3050Y-22301D01*
Y-22201D01*
X3150Y-22101D01*
X3350D01*
X3450Y-22201D01*
X2451Y-22701D02*
X2650Y-22601D01*
X2850Y-22401D01*
Y-22201D01*
X2750Y-22101D01*
X2550D01*
X2451Y-22201D01*
Y-22301D01*
X2550Y-22401D01*
X2850D01*
X1450Y-27801D02*
X1550Y-27901D01*
X1750D01*
X1850Y-27801D01*
Y-27401D01*
X1750Y-27301D01*
X1550D01*
X1450Y-27401D01*
X1250Y-27801D02*
X1150Y-27901D01*
X950D01*
X850Y-27801D01*
Y-27701D01*
X950Y-27601D01*
X1050D01*
X950D01*
X850Y-27501D01*
Y-27401D01*
X950Y-27301D01*
X1150D01*
X1250Y-27401D01*
X650Y-27901D02*
X251D01*
Y-27801D01*
X650Y-27401D01*
Y-27301D01*
X950Y-24400D02*
X850Y-24300D01*
X650D01*
X550Y-24400D01*
Y-24800D01*
X650Y-24900D01*
X850D01*
X950Y-24800D01*
X1150Y-24400D02*
X1250Y-24300D01*
X1450D01*
X1550Y-24400D01*
Y-24500D01*
X1450Y-24600D01*
X1350D01*
X1450D01*
X1550Y-24700D01*
Y-24800D01*
X1450Y-24900D01*
X1250D01*
X1150Y-24800D01*
X1750Y-24400D02*
X1850Y-24300D01*
X2050D01*
X2149Y-24400D01*
Y-24500D01*
X2050Y-24600D01*
X2149Y-24700D01*
Y-24800D01*
X2050Y-24900D01*
X1850D01*
X1750Y-24800D01*
Y-24700D01*
X1850Y-24600D01*
X1750Y-24500D01*
Y-24400D01*
X1850Y-24600D02*
X2050D01*
X2449Y-24500D02*
X2649D01*
X2749Y-24600D01*
Y-24900D01*
X2449D01*
X2349Y-24800D01*
X2449Y-24700D01*
X2749D01*
X18200Y-18919D02*
Y-19519D01*
X18500D01*
X18600Y-19419D01*
Y-19019D01*
X18500Y-18919D01*
X18200D01*
X18800Y-19519D02*
X19000D01*
X18900D01*
Y-18919D01*
X18800Y-19019D01*
X14350Y-18969D02*
Y-19569D01*
X14650D01*
X14750Y-19469D01*
Y-19069D01*
X14650Y-18969D01*
X14350D01*
X15350Y-19569D02*
X14950D01*
X15350Y-19169D01*
Y-19069D01*
X15250Y-18969D01*
X15050D01*
X14950Y-19069D01*
X18700Y-3435D02*
X19300D01*
Y-3135D01*
X19200Y-3035D01*
X18800D01*
X18700Y-3135D01*
Y-3435D01*
X19300Y-2835D02*
Y-2635D01*
Y-2735D01*
X18700D01*
X18800Y-2835D01*
X19300Y-2335D02*
Y-2135D01*
Y-2235D01*
X18700D01*
X18800Y-2335D01*
X15450Y-26019D02*
Y-25419D01*
X15150D01*
X15050Y-25519D01*
Y-25919D01*
X15150Y-26019D01*
X15450D01*
X14450Y-25919D02*
X14550Y-26019D01*
X14750D01*
X14850Y-25919D01*
Y-25819D01*
X14750Y-25719D01*
X14550D01*
X14450Y-25619D01*
Y-25519D01*
X14550Y-25419D01*
X14750D01*
X14850Y-25519D01*
X14250Y-25419D02*
X14050D01*
X14150D01*
Y-26019D01*
X14250Y-25919D01*
X12700Y-32850D02*
X12100D01*
Y-33150D01*
X12200Y-33250D01*
X12600D01*
X12700Y-33150D01*
Y-32850D01*
X12600Y-33850D02*
X12700Y-33750D01*
Y-33550D01*
X12600Y-33450D01*
X12500D01*
X12400Y-33550D01*
Y-33750D01*
X12300Y-33850D01*
X12200D01*
X12100Y-33750D01*
Y-33550D01*
X12200Y-33450D01*
X12100Y-34449D02*
Y-34050D01*
X12500Y-34449D01*
X12600D01*
X12700Y-34350D01*
Y-34150D01*
X12600Y-34050D01*
X11300Y-32850D02*
X10700D01*
Y-33150D01*
X10800Y-33250D01*
X11200D01*
X11300Y-33150D01*
Y-32850D01*
X11200Y-33850D02*
X11300Y-33750D01*
Y-33550D01*
X11200Y-33450D01*
X11100D01*
X11000Y-33550D01*
Y-33750D01*
X10900Y-33850D01*
X10800D01*
X10700Y-33750D01*
Y-33550D01*
X10800Y-33450D01*
X11200Y-34050D02*
X11300Y-34150D01*
Y-34350D01*
X11200Y-34449D01*
X11100D01*
X11000Y-34350D01*
Y-34250D01*
Y-34350D01*
X10900Y-34449D01*
X10800D01*
X10700Y-34350D01*
Y-34150D01*
X10800Y-34050D01*
X16850Y-5735D02*
X17450D01*
Y-5335D01*
Y-5135D02*
Y-4935D01*
Y-5035D01*
X16850D01*
X16950Y-5135D01*
X17450Y-4635D02*
Y-4435D01*
Y-4535D01*
X16850D01*
X16950Y-4635D01*
X19100Y-4385D02*
X18500D01*
Y-4785D01*
Y-4984D02*
Y-5184D01*
Y-5084D01*
X19100D01*
X19000Y-4984D01*
X18500Y-5884D02*
Y-5484D01*
X18900Y-5884D01*
X19000D01*
X19100Y-5784D01*
Y-5584D01*
X19000Y-5484D01*
X18950Y-21119D02*
Y-21519D01*
X19050Y-21619D01*
X19250D01*
X19350Y-21519D01*
Y-21119D01*
X19250Y-21019D01*
X19050D01*
X19150Y-21219D02*
X18950Y-21019D01*
X19050D02*
X18950Y-21119D01*
X18750Y-21019D02*
X18550D01*
X18650D01*
Y-21619D01*
X18750Y-21519D01*
X14900Y-21200D02*
Y-21600D01*
X15000Y-21700D01*
X15200D01*
X15300Y-21600D01*
Y-21200D01*
X15200Y-21100D01*
X15000D01*
X15100Y-21300D02*
X14900Y-21100D01*
X15000D02*
X14900Y-21200D01*
X14300Y-21100D02*
X14700D01*
X14300Y-21500D01*
Y-21600D01*
X14400Y-21700D01*
X14600D01*
X14700Y-21600D01*
X17050Y-18769D02*
X16650D01*
X16550Y-18869D01*
Y-19069D01*
X16650Y-19169D01*
X17050D01*
X17150Y-19069D01*
Y-18869D01*
X16950Y-18969D02*
X17150Y-18769D01*
Y-18869D02*
X17050Y-18769D01*
X16650Y-18569D02*
X16550Y-18470D01*
Y-18270D01*
X16650Y-18170D01*
X16750D01*
X16850Y-18270D01*
Y-18370D01*
Y-18270D01*
X16950Y-18170D01*
X17050D01*
X17150Y-18270D01*
Y-18470D01*
X17050Y-18569D01*
X16500Y-20850D02*
X15900D01*
Y-20550D01*
X16000Y-20450D01*
X16200D01*
X16300Y-20550D01*
Y-20850D01*
Y-20650D02*
X16500Y-20450D01*
Y-19850D02*
Y-20250D01*
X16100Y-19850D01*
X16000D01*
X15900Y-19950D01*
Y-20150D01*
X16000Y-20250D01*
X20000Y-20135D02*
X19400D01*
Y-19835D01*
X19500Y-19735D01*
X19700D01*
X19800Y-19835D01*
Y-20135D01*
Y-19935D02*
X20000Y-19735D01*
X19500Y-19535D02*
X19400Y-19435D01*
Y-19235D01*
X19500Y-19135D01*
X19600D01*
X19700Y-19235D01*
Y-19335D01*
Y-19235D01*
X19800Y-19135D01*
X19900D01*
X20000Y-19235D01*
Y-19435D01*
X19900Y-19535D01*
X18650Y-25569D02*
Y-26169D01*
X18350D01*
X18250Y-26069D01*
Y-25869D01*
X18350Y-25769D01*
X18650D01*
X18450D02*
X18250Y-25569D01*
X17750D02*
Y-26169D01*
X18050Y-25869D01*
X17650D01*
X16500Y-24169D02*
X17100D01*
Y-24469D01*
X17000Y-24569D01*
X16800D01*
X16700Y-24469D01*
Y-24169D01*
Y-24369D02*
X16500Y-24569D01*
X17100Y-25169D02*
Y-24769D01*
X16800D01*
X16900Y-24969D01*
Y-25069D01*
X16800Y-25169D01*
X16600D01*
X16500Y-25069D01*
Y-24869D01*
X16600Y-24769D01*
X15300Y-23519D02*
Y-24119D01*
X15000D01*
X14900Y-24019D01*
Y-23819D01*
X15000Y-23719D01*
X15300D01*
X15100D02*
X14900Y-23519D01*
X14300Y-24119D02*
X14500Y-24019D01*
X14700Y-23819D01*
Y-23619D01*
X14600Y-23519D01*
X14400D01*
X14300Y-23619D01*
Y-23719D01*
X14400Y-23819D01*
X14700D01*
X15250Y-22519D02*
Y-23119D01*
X14950D01*
X14850Y-23019D01*
Y-22819D01*
X14950Y-22719D01*
X15250D01*
X15050D02*
X14850Y-22519D01*
X14650Y-23119D02*
X14250D01*
Y-23019D01*
X14650Y-22619D01*
Y-22519D01*
X15500Y-785D02*
X16100D01*
Y-1085D01*
X16000Y-1185D01*
X15800D01*
X15700Y-1085D01*
Y-785D01*
Y-985D02*
X15500Y-1185D01*
Y-1384D02*
Y-1584D01*
Y-1484D01*
X16100D01*
X16000Y-1384D01*
X15500Y-1884D02*
Y-2084D01*
Y-1984D01*
X16100D01*
X16000Y-1884D01*
X17450Y-635D02*
X18050D01*
Y-935D01*
X17950Y-1035D01*
X17750D01*
X17650Y-935D01*
Y-635D01*
Y-835D02*
X17450Y-1035D01*
Y-1234D02*
Y-1434D01*
Y-1334D01*
X18050D01*
X17950Y-1234D01*
X17450Y-2134D02*
Y-1734D01*
X17850Y-2134D01*
X17950D01*
X18050Y-2034D01*
Y-1834D01*
X17950Y-1734D01*
X5100Y-12650D02*
X5700D01*
Y-12950D01*
X5600Y-13050D01*
X5400D01*
X5300Y-12950D01*
Y-12650D01*
Y-12850D02*
X5100Y-13050D01*
Y-13650D02*
Y-13250D01*
X5500Y-13650D01*
X5600D01*
X5700Y-13550D01*
Y-13350D01*
X5600Y-13250D01*
Y-13850D02*
X5700Y-13950D01*
Y-14150D01*
X5600Y-14249D01*
X5200D01*
X5100Y-14150D01*
Y-13950D01*
X5200Y-13850D01*
X5600D01*
X7750Y-11500D02*
Y-10900D01*
X8050D01*
X8150Y-11000D01*
Y-11200D01*
X8050Y-11300D01*
X7750D01*
X7950D02*
X8150Y-11500D01*
X8750D02*
X8350D01*
X8750Y-11100D01*
Y-11000D01*
X8650Y-10900D01*
X8450D01*
X8350Y-11000D01*
X8950Y-11500D02*
X9150D01*
X9050D01*
Y-10900D01*
X8950Y-11000D01*
X6100Y-11500D02*
Y-10900D01*
X6400D01*
X6500Y-11000D01*
Y-11200D01*
X6400Y-11300D01*
X6100D01*
X6300D02*
X6500Y-11500D01*
X7100D02*
X6700D01*
X7100Y-11100D01*
Y-11000D01*
X7000Y-10900D01*
X6800D01*
X6700Y-11000D01*
X7699Y-11500D02*
X7300D01*
X7699Y-11100D01*
Y-11000D01*
X7600Y-10900D01*
X7400D01*
X7300Y-11000D01*
X5850Y-10300D02*
Y-9700D01*
X6150D01*
X6250Y-9800D01*
Y-10000D01*
X6150Y-10100D01*
X5850D01*
X6050D02*
X6250Y-10300D01*
X6850D02*
X6450D01*
X6850Y-9900D01*
Y-9800D01*
X6750Y-9700D01*
X6550D01*
X6450Y-9800D01*
X7050D02*
X7150Y-9700D01*
X7350D01*
X7449Y-9800D01*
Y-9900D01*
X7350Y-10000D01*
X7250D01*
X7350D01*
X7449Y-10100D01*
Y-10200D01*
X7350Y-10300D01*
X7150D01*
X7050Y-10200D01*
X5850Y-8900D02*
Y-8300D01*
X6150D01*
X6250Y-8400D01*
Y-8600D01*
X6150Y-8700D01*
X5850D01*
X6050D02*
X6250Y-8900D01*
X6850D02*
X6450D01*
X6850Y-8500D01*
Y-8400D01*
X6750Y-8300D01*
X6550D01*
X6450Y-8400D01*
X7350Y-8900D02*
Y-8300D01*
X7050Y-8600D01*
X7449D01*
X8500Y-23201D02*
X7900D01*
Y-22901D01*
X8000Y-22801D01*
X8200D01*
X8300Y-22901D01*
Y-23201D01*
Y-23001D02*
X8500Y-22801D01*
X8000Y-22601D02*
X7900Y-22501D01*
Y-22301D01*
X8000Y-22201D01*
X8100D01*
X8200Y-22301D01*
Y-22401D01*
Y-22301D01*
X8300Y-22201D01*
X8400D01*
X8500Y-22301D01*
Y-22501D01*
X8400Y-22601D01*
X8000Y-22002D02*
X7900Y-21902D01*
Y-21702D01*
X8000Y-21602D01*
X8400D01*
X8500Y-21702D01*
Y-21902D01*
X8400Y-22002D01*
X8000D01*
X8450Y-24501D02*
Y-25101D01*
X8150D01*
X8050Y-25001D01*
Y-24801D01*
X8150Y-24701D01*
X8450D01*
X8250D02*
X8050Y-24501D01*
X7850Y-25001D02*
X7750Y-25101D01*
X7550D01*
X7450Y-25001D01*
Y-24901D01*
X7550Y-24801D01*
X7650D01*
X7550D01*
X7450Y-24701D01*
Y-24601D01*
X7550Y-24501D01*
X7750D01*
X7850Y-24601D01*
X7250Y-24501D02*
X7050D01*
X7150D01*
Y-25101D01*
X7250Y-25001D01*
X5500Y-21251D02*
X6100D01*
Y-21551D01*
X6000Y-21651D01*
X5800D01*
X5700Y-21551D01*
Y-21251D01*
Y-21451D02*
X5500Y-21651D01*
X6000Y-21851D02*
X6100Y-21951D01*
Y-22151D01*
X6000Y-22251D01*
X5900D01*
X5800Y-22151D01*
Y-22051D01*
Y-22151D01*
X5700Y-22251D01*
X5600D01*
X5500Y-22151D01*
Y-21951D01*
X5600Y-21851D01*
X5500Y-22851D02*
Y-22451D01*
X5900Y-22851D01*
X6000D01*
X6100Y-22751D01*
Y-22551D01*
X6000Y-22451D01*
X4500Y-21251D02*
X5100D01*
Y-21551D01*
X5000Y-21651D01*
X4800D01*
X4700Y-21551D01*
Y-21251D01*
Y-21451D02*
X4500Y-21651D01*
X5000Y-21851D02*
X5100Y-21951D01*
Y-22151D01*
X5000Y-22251D01*
X4900D01*
X4800Y-22151D01*
Y-22051D01*
Y-22151D01*
X4700Y-22251D01*
X4600D01*
X4500Y-22151D01*
Y-21951D01*
X4600Y-21851D01*
X5000Y-22451D02*
X5100Y-22551D01*
Y-22751D01*
X5000Y-22851D01*
X4900D01*
X4800Y-22751D01*
Y-22651D01*
Y-22751D01*
X4700Y-22851D01*
X4600D01*
X4500Y-22751D01*
Y-22551D01*
X4600Y-22451D01*
X3000Y-28201D02*
X2400D01*
Y-27901D01*
X2500Y-27801D01*
X2700D01*
X2800Y-27901D01*
Y-28201D01*
Y-28001D02*
X3000Y-27801D01*
X2500Y-27601D02*
X2400Y-27501D01*
Y-27301D01*
X2500Y-27201D01*
X2600D01*
X2700Y-27301D01*
Y-27401D01*
Y-27301D01*
X2800Y-27201D01*
X2900D01*
X3000Y-27301D01*
Y-27501D01*
X2900Y-27601D01*
X3000Y-26702D02*
X2400D01*
X2700Y-27002D01*
Y-26602D01*
X2400Y-25451D02*
X3000D01*
Y-25751D01*
X2900Y-25851D01*
X2700D01*
X2600Y-25751D01*
Y-25451D01*
Y-25651D02*
X2400Y-25851D01*
X2900Y-26051D02*
X3000Y-26151D01*
Y-26351D01*
X2900Y-26451D01*
X2800D01*
X2700Y-26351D01*
Y-26251D01*
Y-26351D01*
X2600Y-26451D01*
X2500D01*
X2400Y-26351D01*
Y-26151D01*
X2500Y-26051D01*
X3000Y-27051D02*
Y-26651D01*
X2700D01*
X2800Y-26851D01*
Y-26951D01*
X2700Y-27051D01*
X2500D01*
X2400Y-26951D01*
Y-26751D01*
X2500Y-26651D01*
X700Y-26901D02*
Y-26301D01*
X1000D01*
X1100Y-26401D01*
Y-26601D01*
X1000Y-26701D01*
X700D01*
X900D02*
X1100Y-26901D01*
X1300Y-26401D02*
X1400Y-26301D01*
X1600D01*
X1700Y-26401D01*
Y-26501D01*
X1600Y-26601D01*
X1500D01*
X1600D01*
X1700Y-26701D01*
Y-26801D01*
X1600Y-26901D01*
X1400D01*
X1300Y-26801D01*
X2299Y-26301D02*
X2100Y-26401D01*
X1900Y-26601D01*
Y-26801D01*
X2000Y-26901D01*
X2200D01*
X2299Y-26801D01*
Y-26701D01*
X2200Y-26601D01*
X1900D01*
X750Y-25901D02*
Y-25301D01*
X1050D01*
X1150Y-25401D01*
Y-25601D01*
X1050Y-25701D01*
X750D01*
X950D02*
X1150Y-25901D01*
X1350Y-25401D02*
X1450Y-25301D01*
X1650D01*
X1750Y-25401D01*
Y-25501D01*
X1650Y-25601D01*
X1550D01*
X1650D01*
X1750Y-25701D01*
Y-25801D01*
X1650Y-25901D01*
X1450D01*
X1350Y-25801D01*
X1950Y-25301D02*
X2349D01*
Y-25401D01*
X1950Y-25801D01*
Y-25901D01*
X17000Y-2235D02*
X16400D01*
Y-1935D01*
X16500Y-1835D01*
X16700D01*
X16800Y-1935D01*
Y-2235D01*
Y-2035D02*
X17000Y-1835D01*
Y-1635D02*
Y-1435D01*
Y-1535D01*
X16400D01*
X16500Y-1635D01*
X17000Y-735D02*
Y-1135D01*
X16600Y-735D01*
X16500D01*
X16400Y-835D01*
Y-1035D01*
X16500Y-1135D01*
X17000Y-535D02*
Y-335D01*
Y-435D01*
X16400D01*
X16500Y-535D01*
X18700Y-23819D02*
X19300D01*
Y-24119D01*
X19200Y-24219D01*
X19000D01*
X18900Y-24119D01*
Y-23819D01*
Y-24019D02*
X18700Y-24219D01*
X19300Y-24419D02*
Y-24819D01*
Y-24619D01*
X18700D01*
Y-25019D02*
Y-25219D01*
Y-25119D01*
X19300D01*
X19200Y-25019D01*
X5350Y-23801D02*
Y-24301D01*
X5450Y-24401D01*
X5650D01*
X5750Y-24301D01*
Y-23801D01*
X6250Y-24401D02*
Y-23801D01*
X5950Y-24101D01*
X6350D01*
X16000Y-3284D02*
Y-2785D01*
X15900Y-2685D01*
X15700D01*
X15600Y-2785D01*
Y-3284D01*
X15400Y-2685D02*
X15200D01*
X15300D01*
Y-3284D01*
X15400Y-3184D01*
X14900Y-2685D02*
X14700D01*
X14800D01*
Y-3284D01*
X14900Y-3184D01*
X5450Y-25401D02*
X6050D01*
Y-25701D01*
X5950Y-25801D01*
X5750D01*
X5650Y-25701D01*
Y-25401D01*
Y-25601D02*
X5450Y-25801D01*
X5950Y-26001D02*
X6050Y-26101D01*
Y-26301D01*
X5950Y-26401D01*
X5850D01*
X5750Y-26301D01*
Y-26201D01*
Y-26301D01*
X5650Y-26401D01*
X5550D01*
X5450Y-26301D01*
Y-26101D01*
X5550Y-26001D01*
X5950Y-26601D02*
X6050Y-26701D01*
Y-26901D01*
X5950Y-27001D01*
X5850D01*
X5750Y-26901D01*
X5650Y-27001D01*
X5550D01*
X5450Y-26901D01*
Y-26701D01*
X5550Y-26601D01*
X5650D01*
X5750Y-26701D01*
X5850Y-26601D01*
X5950D01*
X5750Y-26701D02*
Y-26901D01*
X16800Y-22219D02*
Y-22719D01*
X16900Y-22819D01*
X17100D01*
X17200Y-22719D01*
Y-22219D01*
X17400Y-22819D02*
X17600D01*
X17500D01*
Y-22219D01*
X17400Y-22319D01*
X6850Y-29350D02*
X7050D01*
X6950D01*
Y-28850D01*
X7050Y-28750D01*
X7150D01*
X7250Y-28850D01*
X6650Y-28750D02*
Y-29350D01*
X6350D01*
X6250Y-29250D01*
Y-29050D01*
X6350Y-28950D01*
X6650D01*
X6050Y-28850D02*
X5950Y-28750D01*
X5750D01*
X5651Y-28850D01*
Y-29250D01*
X5750Y-29350D01*
X5950D01*
X6050Y-29250D01*
Y-29150D01*
X5950Y-29050D01*
X5651D01*
X4800Y-24001D02*
X4900Y-23901D01*
Y-23701D01*
X4800Y-23601D01*
X4400D01*
X4300Y-23701D01*
Y-23901D01*
X4400Y-24001D01*
X4800Y-24201D02*
X4900Y-24301D01*
Y-24501D01*
X4800Y-24601D01*
X4700D01*
X4600Y-24501D01*
Y-24401D01*
Y-24501D01*
X4500Y-24601D01*
X4400D01*
X4300Y-24501D01*
Y-24301D01*
X4400Y-24201D01*
Y-24801D02*
X4300Y-24901D01*
Y-25101D01*
X4400Y-25201D01*
X4800D01*
X4900Y-25101D01*
Y-24901D01*
X4800Y-24801D01*
X4700D01*
X4600Y-24901D01*
Y-25201D01*
X8550Y-19300D02*
Y-18700D01*
X8850D01*
X8950Y-18800D01*
Y-19000D01*
X8850Y-19100D01*
X8550D01*
X8750D02*
X8950Y-19300D01*
X9150Y-19200D02*
X9250Y-19300D01*
X9450D01*
X9550Y-19200D01*
Y-18800D01*
X9450Y-18700D01*
X9250D01*
X9150Y-18800D01*
Y-18900D01*
X9250Y-19000D01*
X9550D01*
X9750Y-18800D02*
X9850Y-18700D01*
X10050D01*
X10149Y-18800D01*
Y-19200D01*
X10050Y-19300D01*
X9850D01*
X9750Y-19200D01*
Y-18800D01*
X8550Y-20300D02*
Y-19700D01*
X8850D01*
X8950Y-19800D01*
Y-20000D01*
X8850Y-20100D01*
X8550D01*
X8750D02*
X8950Y-20300D01*
X9150Y-20200D02*
X9250Y-20300D01*
X9450D01*
X9550Y-20200D01*
Y-19800D01*
X9450Y-19700D01*
X9250D01*
X9150Y-19800D01*
Y-19900D01*
X9250Y-20000D01*
X9550D01*
X9750Y-20300D02*
X9950D01*
X9850D01*
Y-19700D01*
X9750Y-19800D01*
X850Y-22410D02*
X750Y-22310D01*
X550D01*
X450Y-22410D01*
Y-22810D01*
X550Y-22910D01*
X750D01*
X850Y-22810D01*
X1050Y-22410D02*
X1150Y-22310D01*
X1350D01*
X1450Y-22410D01*
Y-22510D01*
X1350Y-22610D01*
X1250D01*
X1350D01*
X1450Y-22710D01*
Y-22810D01*
X1350Y-22910D01*
X1150D01*
X1050Y-22810D01*
X1650Y-22410D02*
X1750Y-22310D01*
X1950D01*
X2049Y-22410D01*
Y-22510D01*
X1950Y-22610D01*
X2049Y-22710D01*
Y-22810D01*
X1950Y-22910D01*
X1750D01*
X1650Y-22810D01*
Y-22710D01*
X1750Y-22610D01*
X1650Y-22510D01*
Y-22410D01*
X1750Y-22610D02*
X1950D01*
X2249Y-22310D02*
Y-22910D01*
X2549D01*
X2649Y-22810D01*
Y-22710D01*
Y-22610D01*
X2549Y-22510D01*
X2249D01*
X16600Y-34950D02*
Y-35350D01*
X17200D01*
Y-34950D01*
X16900Y-35350D02*
Y-35150D01*
X16800Y-34750D02*
X17200Y-34350D01*
X17000Y-34550D01*
X16800Y-34350D01*
X17200Y-34750D01*
X16700Y-34050D02*
X16800D01*
Y-34150D01*
Y-33950D01*
Y-34050D01*
X17100D01*
X17200Y-33950D01*
Y-33351D02*
Y-33551D01*
X17100Y-33651D01*
X16900D01*
X16800Y-33551D01*
Y-33351D01*
X16900Y-33251D01*
X17000D01*
Y-33651D01*
X16800Y-33051D02*
X17200D01*
X17000D01*
X16900Y-32951D01*
X16800Y-32851D01*
Y-32751D01*
X17200Y-32451D02*
X16800D01*
Y-32151D01*
X16900Y-32051D01*
X17200D01*
Y-31551D02*
Y-31751D01*
X17100Y-31851D01*
X16900D01*
X16800Y-31751D01*
Y-31551D01*
X16900Y-31451D01*
X17000D01*
Y-31851D01*
X16200Y-35350D02*
X15800D01*
X15600Y-35150D01*
X15800Y-34950D01*
X16200D01*
X15900D01*
Y-35350D01*
X16200Y-34750D02*
Y-34550D01*
Y-34650D01*
X15600D01*
Y-34750D01*
X16200Y-34250D02*
Y-34050D01*
Y-34150D01*
X15800D01*
Y-34250D01*
X16200Y-33751D02*
X15800D01*
Y-33651D01*
X15900Y-33551D01*
X16200D01*
X15900D01*
X15800Y-33451D01*
X15900Y-33351D01*
X16200D01*
Y-32851D02*
Y-33051D01*
X16100Y-33151D01*
X15900D01*
X15800Y-33051D01*
Y-32851D01*
X15900Y-32751D01*
X16000D01*
Y-33151D01*
X16200Y-32551D02*
X15800D01*
Y-32251D01*
X15900Y-32151D01*
X16200D01*
X15700Y-31851D02*
X15800D01*
Y-31951D01*
Y-31751D01*
Y-31851D01*
X16100D01*
X16200Y-31751D01*
X15800Y-31351D02*
Y-31151D01*
X15900Y-31051D01*
X16200D01*
Y-31351D01*
X16100Y-31451D01*
X16000Y-31351D01*
Y-31051D01*
X15700Y-30751D02*
X15800D01*
Y-30851D01*
Y-30652D01*
Y-30751D01*
X16100D01*
X16200Y-30652D01*
Y-30352D02*
Y-30152D01*
Y-30252D01*
X15800D01*
Y-30352D01*
X16200Y-29752D02*
Y-29552D01*
X16100Y-29452D01*
X15900D01*
X15800Y-29552D01*
Y-29752D01*
X15900Y-29852D01*
X16100D01*
X16200Y-29752D01*
Y-29252D02*
X15800D01*
Y-28952D01*
X15900Y-28852D01*
X16200D01*
D49*
X15872Y-3890D02*
G03*
X15872Y-3890I-49J0D01*
G01*
X19817Y-20807D02*
G03*
X19817Y-20807I-49J0D01*
G01*
X3934Y-16576D02*
G03*
X3934Y-16576I-49J0D01*
G01*
X17112Y-19437D02*
G03*
X17112Y-19437I-49J0D01*
G01*
X15617Y-20937D02*
G03*
X15617Y-20937I-49J0D01*
G01*
X3934Y-12426D02*
G03*
X3934Y-12426I-49J0D01*
G01*
X8134D02*
G03*
X8134Y-12426I-49J0D01*
G01*
Y-16626D02*
G03*
X8134Y-16626I-49J0D01*
G01*
D50*
X3784Y-17456D02*
G03*
X3784Y-17744I0J-144D01*
G01*
Y-13306D02*
G03*
X3784Y-13594I0J-144D01*
G01*
X7984Y-13306D02*
G03*
X7984Y-13594I0J-144D01*
G01*
Y-17506D02*
G03*
X7984Y-17794I0J-144D01*
G01*
X17000Y-26500D02*
X20000D01*
X17000Y-27500D02*
Y-26500D01*
Y-27500D02*
X20000D01*
Y-26500D01*
X5000Y-30100D02*
Y-28100D01*
X8000Y-30100D02*
Y-28100D01*
X5000Y-30100D02*
X8000D01*
X5000Y-28100D02*
X8000D01*
X5000D02*
X6917D01*
X14534Y-2335D02*
X16266D01*
X14534Y-3634D02*
X16266D01*
Y-2335D01*
X14534Y-3634D02*
Y-2335D01*
X19453Y-24312D02*
Y-23682D01*
X18547Y-24312D02*
Y-23682D01*
X19453D01*
X18547Y-25257D02*
X19453D01*
Y-24627D01*
X18547Y-25257D02*
Y-24627D01*
X16554Y-20262D02*
Y-19691D01*
X15846Y-20262D02*
Y-19691D01*
X16554D01*
X15846Y-21109D02*
X16554D01*
Y-20538D01*
X15846Y-21109D02*
Y-20538D01*
X18488Y-21732D02*
X18665D01*
X19335D02*
X19512D01*
Y-21151D01*
X18488Y-21732D02*
Y-21151D01*
X16511Y-6008D02*
Y-4158D01*
X17889Y-6008D02*
Y-4158D01*
X16511Y-6008D02*
X17889D01*
X14957Y-26174D02*
X15509D01*
X14091D02*
X14643D01*
X14957Y-25465D02*
X15509D01*
X14091D02*
X14643D01*
X15509Y-26174D02*
Y-25465D01*
X14091Y-26174D02*
Y-25465D01*
X18449Y-3552D02*
X18568D01*
X18449D02*
Y-2115D01*
X19551Y-3552D02*
Y-2115D01*
X19432Y-3552D02*
X19551D01*
X19432Y-2017D02*
X19551Y-2115D01*
X18449D02*
X18568Y-2017D01*
X18132Y-20183D02*
X18324Y-20381D01*
X18128Y-20175D02*
Y-19811D01*
X18324Y-20381D02*
X18876D01*
X19072Y-20175D02*
Y-19811D01*
X18128Y-18275D02*
X19072D01*
X18128Y-18728D02*
Y-18275D01*
X19072Y-18728D02*
Y-18275D01*
X18876Y-20381D02*
X19065Y-20191D01*
X15288Y-6008D02*
X16312D01*
Y-4158D01*
X15288Y-6008D02*
Y-4158D01*
X18491Y-22715D02*
X19712D01*
X18491Y-23424D02*
X19712D01*
X18491D02*
Y-22715D01*
X3784Y-17456D02*
Y-17167D01*
Y-18033D02*
Y-17744D01*
X1816Y-18033D02*
Y-17167D01*
X3784D01*
X1816Y-18033D02*
X3784D01*
X12051Y-22289D02*
X12878D01*
X10122D02*
X10949D01*
X12051Y-20911D02*
X12878D01*
X10122D02*
X10949D01*
X12878Y-22289D02*
Y-20911D01*
X10122Y-22289D02*
Y-20911D01*
X391Y-23246D02*
X1612D01*
X391Y-23954D02*
X1612D01*
X391D02*
Y-23246D01*
X8391Y-18646D02*
X8962D01*
X8391Y-19354D02*
X8962D01*
X8391D02*
Y-18646D01*
X9809Y-19354D02*
Y-18646D01*
X9238D02*
X9809D01*
X9238Y-19354D02*
X9809D01*
X8391Y-19646D02*
X8962D01*
X8391Y-20354D02*
X8962D01*
X8391D02*
Y-19646D01*
X9809Y-20354D02*
Y-19646D01*
X9238D02*
X9809D01*
X9238Y-20354D02*
X9809D01*
X4954Y-24713D02*
Y-23493D01*
X4246Y-24713D02*
Y-23493D01*
X4954D01*
X6154Y-26063D02*
Y-25493D01*
X5446Y-26063D02*
Y-25493D01*
X6154D01*
X5446Y-26910D02*
X6154D01*
Y-26339D01*
X5446Y-26910D02*
Y-26339D01*
X16446Y-2093D02*
Y-1522D01*
X17154Y-2093D02*
Y-1522D01*
X16446Y-2093D02*
X17154D01*
X16446Y-676D02*
X17154D01*
X16446Y-1247D02*
Y-676D01*
X17154Y-1247D02*
Y-676D01*
X591Y-25247D02*
X1162D01*
X591Y-25956D02*
X1162D01*
X591D02*
Y-25247D01*
X2009Y-25956D02*
Y-25247D01*
X1438D02*
X2009D01*
X1438Y-25956D02*
X2009D01*
X591Y-26247D02*
X1162D01*
X591Y-26956D02*
X1162D01*
X591D02*
Y-26247D01*
X2009Y-26956D02*
Y-26247D01*
X1438D02*
X2009D01*
X1438Y-26956D02*
X2009D01*
X3054Y-25863D02*
Y-25293D01*
X2346Y-25863D02*
Y-25293D01*
X3054D01*
X2346Y-26710D02*
X3054D01*
Y-26139D01*
X2346Y-26710D02*
Y-26139D01*
Y-28310D02*
Y-27739D01*
X3054Y-28310D02*
Y-27739D01*
X2346Y-28310D02*
X3054D01*
X2346Y-26893D02*
X3054D01*
X2346Y-27463D02*
Y-26893D01*
X3054Y-27463D02*
Y-26893D01*
X5154Y-21663D02*
Y-21093D01*
X4446Y-21663D02*
Y-21093D01*
X5154D01*
X4446Y-22510D02*
X5154D01*
Y-21939D01*
X4446Y-22510D02*
Y-21939D01*
X6154Y-21663D02*
Y-21093D01*
X5446Y-21663D02*
Y-21093D01*
X6154D01*
X5446Y-22510D02*
X6154D01*
Y-21939D01*
X5446Y-22510D02*
Y-21939D01*
X7938Y-25156D02*
X8509D01*
X7938Y-24447D02*
X8509D01*
Y-25156D02*
Y-24447D01*
X7091Y-25156D02*
Y-24447D01*
Y-25156D02*
X7662D01*
X7091Y-24447D02*
X7662D01*
X7846Y-23110D02*
Y-22539D01*
X8554Y-23110D02*
Y-22539D01*
X7846Y-23110D02*
X8554D01*
X7846Y-21693D02*
X8554D01*
X7846Y-22263D02*
Y-21693D01*
X8554Y-22263D02*
Y-21693D01*
X5691Y-8246D02*
X6262D01*
X5691Y-8954D02*
X6262D01*
X5691D02*
Y-8246D01*
X7109Y-8954D02*
Y-8246D01*
X6538D02*
X7109D01*
X6538Y-8954D02*
X7109D01*
X5691Y-9646D02*
X6262D01*
X5691Y-10354D02*
X6262D01*
X5691D02*
Y-9646D01*
X7109Y-10354D02*
Y-9646D01*
X6538D02*
X7109D01*
X6538Y-10354D02*
X7109D01*
X6838Y-11554D02*
X7409D01*
X6838Y-10846D02*
X7409D01*
Y-11554D02*
Y-10846D01*
X5991Y-11554D02*
Y-10846D01*
Y-11554D02*
X6562D01*
X5991Y-10846D02*
X6562D01*
X7591D02*
X8162D01*
X7591Y-11554D02*
X8162D01*
X7591D02*
Y-10846D01*
X9009Y-11554D02*
Y-10846D01*
X8438D02*
X9009D01*
X8438Y-11554D02*
X9009D01*
X5754Y-13312D02*
Y-12741D01*
X5046Y-13312D02*
Y-12741D01*
X5754D01*
X5046Y-14159D02*
X5754D01*
Y-13588D01*
X5046Y-14159D02*
Y-13588D01*
X18154Y-1247D02*
Y-676D01*
X17446Y-1247D02*
Y-676D01*
X18154D01*
X17446Y-2093D02*
X18154D01*
Y-1522D01*
X17446Y-2093D02*
Y-1522D01*
X16154Y-1247D02*
Y-676D01*
X15446Y-1247D02*
Y-676D01*
X16154D01*
X15446Y-2093D02*
X16154D01*
Y-1522D01*
X15446Y-2093D02*
Y-1522D01*
X14938Y-23174D02*
X15509D01*
X14938Y-22465D02*
X15509D01*
Y-23174D02*
Y-22465D01*
X14091Y-23174D02*
Y-22465D01*
Y-23174D02*
X14662D01*
X14091Y-22465D02*
X14662D01*
X14938Y-24174D02*
X15509D01*
X14938Y-23465D02*
X15509D01*
Y-24174D02*
Y-23465D01*
X14091Y-24174D02*
Y-23465D01*
Y-24174D02*
X14662D01*
X14091Y-23465D02*
X14662D01*
X17154Y-24531D02*
Y-23961D01*
X16446Y-24531D02*
Y-23961D01*
X17154D01*
X16446Y-25378D02*
X17154D01*
Y-24807D01*
X16446Y-25378D02*
Y-24807D01*
X18338Y-26224D02*
X18909D01*
X18338Y-25515D02*
X18909D01*
Y-26224D02*
Y-25515D01*
X17491Y-26224D02*
Y-25515D01*
Y-26224D02*
X18062D01*
X17491Y-25515D02*
X18062D01*
X19346Y-20309D02*
Y-19738D01*
X20054Y-20309D02*
Y-19738D01*
X19346Y-20309D02*
X20054D01*
X19346Y-18891D02*
X20054D01*
X19346Y-19462D02*
Y-18891D01*
X20054Y-19462D02*
Y-18891D01*
X16137Y-18157D02*
X16718D01*
X16137Y-19181D02*
X16718D01*
X16137D02*
Y-19004D01*
Y-18335D02*
Y-18157D01*
X14288Y-21863D02*
Y-21282D01*
X15312Y-21863D02*
Y-21282D01*
X15135Y-21863D02*
X15312D01*
X14288D02*
X14465D01*
X18111Y-4161D02*
X19489D01*
X18111Y-6011D02*
Y-4161D01*
X19489Y-6011D02*
Y-4161D01*
X11354Y-31843D02*
Y-31291D01*
Y-32709D02*
Y-32157D01*
X10646Y-31843D02*
Y-31291D01*
Y-32709D02*
Y-32157D01*
Y-31291D02*
X11354D01*
X10646Y-32709D02*
X11354D01*
X12754Y-31843D02*
Y-31291D01*
Y-32709D02*
Y-32157D01*
X12046Y-31843D02*
Y-31291D01*
Y-32709D02*
Y-32157D01*
Y-31291D02*
X12754D01*
X12046Y-32709D02*
X12754D01*
X15076Y-20381D02*
X15265Y-20191D01*
X15272Y-18728D02*
Y-18275D01*
X14328Y-18728D02*
Y-18275D01*
X15272D01*
Y-20175D02*
Y-19811D01*
X14524Y-20381D02*
X15076D01*
X14328Y-20175D02*
Y-19811D01*
X14332Y-20183D02*
X14524Y-20381D01*
X391Y-24954D02*
Y-24246D01*
Y-24954D02*
X1612D01*
X391Y-24246D02*
X1612D01*
X2009Y-27956D02*
Y-27247D01*
X788D02*
X2009D01*
X788Y-27956D02*
X2009D01*
X2373Y-22913D02*
X4224D01*
X2373Y-21889D02*
X4224D01*
Y-22913D02*
Y-21889D01*
X6488Y-22625D02*
Y-20774D01*
X7512Y-22625D02*
Y-20774D01*
X6488Y-22625D02*
X7512D01*
X7846Y-25493D02*
X8554D01*
X7846Y-26713D02*
Y-25493D01*
X8554Y-26713D02*
Y-25493D01*
X7091Y-24156D02*
Y-23447D01*
Y-24156D02*
X8312D01*
X7091Y-23447D02*
X8312D01*
X7512Y-27428D02*
Y-25578D01*
X6488Y-27428D02*
Y-25578D01*
X7512D01*
X3246Y-24910D02*
X3954D01*
Y-23689D01*
X3246Y-24910D02*
Y-23689D01*
X2912Y-25028D02*
Y-23178D01*
X1888Y-25028D02*
Y-23178D01*
X2912D01*
X17446Y-23961D02*
X18154D01*
X17446Y-25181D02*
Y-23961D01*
X18154Y-25181D02*
Y-23961D01*
X14091Y-25174D02*
Y-24465D01*
Y-25174D02*
X15312D01*
X14091Y-24465D02*
X15312D01*
X16846Y-21178D02*
X17554D01*
Y-19957D01*
X16846Y-21178D02*
Y-19957D01*
X1816Y-13883D02*
X3784D01*
X1816Y-13017D02*
X3784D01*
X1816Y-13883D02*
Y-13017D01*
X3784Y-13883D02*
Y-13594D01*
Y-13306D02*
Y-13017D01*
X6016Y-13883D02*
X7984D01*
X6016Y-13017D02*
X7984D01*
X6016Y-13883D02*
Y-13017D01*
X7984Y-13883D02*
Y-13594D01*
Y-13306D02*
Y-13017D01*
X6016Y-18083D02*
X7984D01*
X6016Y-17217D02*
X7984D01*
X6016Y-18083D02*
Y-17217D01*
X7984Y-18083D02*
Y-17794D01*
Y-17506D02*
Y-17217D01*
X15154Y-1896D02*
Y-676D01*
X14446Y-1896D02*
Y-676D01*
X15154D01*
X16691Y-3030D02*
X17912D01*
X16691Y-3739D02*
X17912D01*
X16691D02*
Y-3030D01*
D51*
X4567Y-29900D02*
X4733Y-29817D01*
X4900Y-29650D01*
Y-29483D01*
X4817Y-29400D01*
X4650D01*
X4567Y-29483D01*
Y-29567D01*
X4650Y-29650D01*
X4900D01*
X4567Y-28900D02*
X4900D01*
Y-28650D01*
X4733Y-28733D01*
X4650D01*
X4567Y-28650D01*
Y-28483D01*
X4650Y-28400D01*
X4817D01*
X4900Y-28483D01*
X8167Y-29400D02*
X8500D01*
X8167Y-29733D01*
Y-29817D01*
X8250Y-29900D01*
X8417D01*
X8500Y-29817D01*
X8300Y-28400D02*
X8133D01*
X8217D01*
Y-28900D01*
X8300Y-28817D01*
M02*
