M48
INCH,LZ
;TYPE=PLATED
T1F00S00C0.0197
T2F00S00C0.0354
T3F00S00C0.0591
T4F00S00C0.1181
%
T01
X014Y-01755
X0135Y-0196
Y-02305
X01545Y-0229
X015485Y-023484
X0158Y-022384
X015863Y-021732
X0167Y-022035
X0177
X018985Y-022384
X018Y-024
X01705Y-023085
X01625Y-02445
X015135Y-025319
X015Y-0266
X01675Y-026
X015365Y-028735
X01725Y-02085
X0177Y-0186
X0175Y-01715
X011823Y-019226
Y-019974
X0082Y-0211
X00815Y-0233
X0063Y-02655
X003035Y-026336
X0035Y-0256
Y-0215
X0021Y-0224
X00255Y-0196
X00305
X0055Y-0186
X00725Y-018674
X0111Y-0276
X0123
X0005Y-027601
X00255Y-0156
X004
X0045Y-01445
X00305Y-014474
X00255Y-0116
X005Y-012
X00625
X00725Y-0119
Y-014474
Y-0156
X01Y-016
X0105Y-0136
Y-0106
X0115
X01195Y-0096
X0125
X0095
X00515Y-0086
X0031Y-0077
X002Y-0086
X0175Y-0076
X018Y-006
X0158Y-003885
X0167Y-002635
X0201Y-002
X0195Y-0145
X0185Y-0155
X0165Y-0121
X009Y-0005
T02
X0185Y-027
X0195
X0075Y-0286
X0065
X0055
Y-0296
X0065
X0075
X0147Y-016
X0157
Y-015
X0147
Y-014
X0157
Y-0126
X0147
Y-0116
X0157
Y-0106
X0147
Y-0096
X0157
Y-0086
X0147
T03
X0115Y-02365
Y-026603
Y-005603
Y-00265
T04
X011358Y-017783
M30
