%FSLAX24Y24*%
%MOIN*%
G70*
G01*
G75*
%ADD10C,0.0100*%
%ADD11R,0.0394X0.0433*%
%ADD12R,0.0374X0.0354*%
%ADD13R,0.0630X0.0335*%
%ADD14R,0.0315X0.0118*%
%ADD15R,0.0118X0.0315*%
%ADD16R,0.0571X0.0217*%
%ADD17R,0.0236X0.0787*%
%ADD18R,0.0118X0.0787*%
%ADD19R,0.0591X0.0512*%
%ADD20R,0.0354X0.0374*%
%ADD21R,0.0354X0.0374*%
%ADD22R,0.1063X0.0630*%
%ADD23R,0.0433X0.0394*%
%ADD24R,0.0315X0.0630*%
%ADD25R,0.0709X0.0630*%
%ADD26R,0.0433X0.0394*%
%ADD27R,0.0940X0.1000*%
%ADD28R,0.1300X0.1600*%
%ADD29R,0.6693X0.2500*%
%ADD30R,0.0787X0.0787*%
%ADD31R,0.0236X0.0866*%
%ADD32R,0.0236X0.0866*%
%ADD33R,0.0709X0.1063*%
%ADD34R,0.0394X0.0433*%
%ADD35R,0.0374X0.0354*%
%ADD36R,0.0630X0.0709*%
%ADD37C,0.0400*%
%ADD38C,0.0300*%
%ADD39C,0.0200*%
%ADD40C,0.0500*%
%ADD41C,0.0591*%
%ADD42R,0.0591X0.0591*%
%ADD43C,0.1181*%
%ADD44C,0.1181*%
%ADD45C,0.1575*%
%ADD46C,0.0394*%
%ADD47C,0.0394*%
%ADD48R,0.0315X0.0315*%
%ADD49C,0.0098*%
%ADD50C,0.0079*%
%ADD51C,0.0080*%
%ADD52R,0.0474X0.0513*%
%ADD53R,0.0454X0.0434*%
%ADD54R,0.0710X0.0415*%
%ADD55R,0.0395X0.0198*%
%ADD56R,0.0198X0.0395*%
%ADD57R,0.0651X0.0297*%
%ADD58R,0.0316X0.0867*%
%ADD59R,0.0198X0.0867*%
%ADD60R,0.0671X0.0592*%
%ADD61R,0.0434X0.0454*%
%ADD62R,0.0434X0.0454*%
%ADD63R,0.1143X0.0710*%
%ADD64R,0.0513X0.0474*%
%ADD65R,0.0395X0.0710*%
%ADD66R,0.0789X0.0710*%
%ADD67R,0.0513X0.0474*%
%ADD68R,0.1020X0.1080*%
%ADD69R,0.1380X0.1680*%
%ADD70R,0.6773X0.2580*%
%ADD71R,0.0867X0.0867*%
%ADD72R,0.0316X0.0946*%
%ADD73R,0.0316X0.0946*%
%ADD74R,0.0789X0.1143*%
%ADD75R,0.0474X0.0513*%
%ADD76R,0.0454X0.0434*%
%ADD77R,0.0710X0.0789*%
%ADD78C,0.0671*%
%ADD79R,0.0671X0.0671*%
%ADD80C,0.1261*%
%ADD81C,0.1261*%
%ADD82C,0.1655*%
%ADD83C,0.0474*%
%ADD84C,0.0474*%
%ADD85R,0.0395X0.0395*%
D11*
X11000Y-31665D02*
D03*
X12400D02*
D03*
X4600Y-24536D02*
D03*
X5800Y-25867D02*
D03*
Y-26536D02*
D03*
X16800Y-1719D02*
D03*
Y-1050D02*
D03*
X2700Y-25667D02*
D03*
Y-26336D02*
D03*
Y-27936D02*
D03*
Y-27267D02*
D03*
X4800Y-21467D02*
D03*
Y-22136D02*
D03*
X5800Y-21467D02*
D03*
Y-22136D02*
D03*
X8200Y-22736D02*
D03*
Y-22067D02*
D03*
X5400Y-13115D02*
D03*
Y-13785D02*
D03*
X17800Y-1050D02*
D03*
Y-1719D02*
D03*
X15800D02*
D03*
X16800Y-24335D02*
D03*
Y-25004D02*
D03*
X19700Y-19935D02*
D03*
Y-19265D02*
D03*
X11000Y-32335D02*
D03*
X12400D02*
D03*
X8200Y-26536D02*
D03*
X3600Y-23867D02*
D03*
X17800Y-25004D02*
D03*
X17200Y-20135D02*
D03*
X14800Y-1719D02*
D03*
X15800Y-1050D02*
D03*
X16200Y-20065D02*
D03*
Y-20735D02*
D03*
D12*
X16137Y-18669D02*
D03*
X17063Y-19043D02*
D03*
D13*
X14800Y-18600D02*
D03*
X18600D02*
D03*
Y-19939D02*
D03*
X14800D02*
D03*
D14*
X16200Y-22069D02*
D03*
Y-22384D02*
D03*
Y-22699D02*
D03*
Y-23014D02*
D03*
X18168D02*
D03*
Y-22699D02*
D03*
Y-22384D02*
D03*
Y-22069D02*
D03*
D15*
X16712Y-23546D02*
D03*
X17027D02*
D03*
X17342D02*
D03*
X17657D02*
D03*
X17027Y-21577D02*
D03*
X17342D02*
D03*
X17657D02*
D03*
X16712D02*
D03*
D16*
X15823Y-3359D02*
D03*
Y-2985D02*
D03*
Y-2611D02*
D03*
X14977D02*
D03*
Y-3359D02*
D03*
D17*
X6246Y-24799D02*
D03*
X5341D02*
D03*
X6246Y-23401D02*
D03*
X5341D02*
D03*
D18*
X5991Y-24801D02*
D03*
X5794D02*
D03*
X5597D02*
D03*
X5991Y-23401D02*
D03*
X5794D02*
D03*
X5597D02*
D03*
X3399Y-8600D02*
D03*
X3596D02*
D03*
X3793D02*
D03*
X3399Y-10000D02*
D03*
X3596D02*
D03*
X3793D02*
D03*
D19*
X19000Y-24095D02*
D03*
Y-24843D02*
D03*
D20*
X19374Y-20807D02*
D03*
X19000Y-21732D02*
D03*
X14800Y-21863D02*
D03*
X15174Y-20937D02*
D03*
D21*
X18626Y-20807D02*
D03*
X14426Y-20937D02*
D03*
D22*
X17200Y-5536D02*
D03*
Y-4433D02*
D03*
X18800Y-5736D02*
D03*
Y-4633D02*
D03*
D23*
X15135Y-25819D02*
D03*
X14465D02*
D03*
X19535Y-23069D02*
D03*
X1435Y-23600D02*
D03*
X8765Y-19000D02*
D03*
X9435D02*
D03*
X8765Y-20000D02*
D03*
X9435D02*
D03*
X965Y-25601D02*
D03*
X1635D02*
D03*
X965Y-26601D02*
D03*
X1635D02*
D03*
X8135Y-24801D02*
D03*
X7465D02*
D03*
X6065Y-8600D02*
D03*
X6735D02*
D03*
X6065Y-10000D02*
D03*
X6735D02*
D03*
X7035Y-11200D02*
D03*
X6365D02*
D03*
X7965D02*
D03*
X8635D02*
D03*
X15135Y-22819D02*
D03*
X14465D02*
D03*
X15135Y-23819D02*
D03*
X14465D02*
D03*
X18535Y-25869D02*
D03*
X17865D02*
D03*
X1435Y-24600D02*
D03*
X965Y-27601D02*
D03*
X8135Y-23801D02*
D03*
X15135Y-24819D02*
D03*
X17735Y-3385D02*
D03*
D24*
X19000Y-2115D02*
D03*
Y-3454D02*
D03*
D25*
X15800Y-4433D02*
D03*
Y-5536D02*
D03*
X7000Y-22152D02*
D03*
Y-21050D02*
D03*
Y-26050D02*
D03*
Y-27152D02*
D03*
X2400Y-23650D02*
D03*
Y-24752D02*
D03*
D26*
X18865Y-23069D02*
D03*
X765Y-23600D02*
D03*
Y-24600D02*
D03*
X1635Y-27601D02*
D03*
X7465Y-23801D02*
D03*
X14465Y-24819D02*
D03*
X17065Y-3385D02*
D03*
D27*
X7500Y-3000D02*
D03*
Y-5360D02*
D03*
D28*
X17200Y-29400D02*
D03*
D29*
X16924Y-32983D02*
D03*
D30*
X2868Y-8600D02*
D03*
X4325D02*
D03*
X2868Y-10000D02*
D03*
X4325D02*
D03*
D31*
X3050Y-16576D02*
D03*
X2550D02*
D03*
X2050D02*
D03*
X3550Y-18624D02*
D03*
X3050D02*
D03*
X2550D02*
D03*
X2050D02*
D03*
X6750Y-12426D02*
D03*
X7250D02*
D03*
X2050Y-14474D02*
D03*
X2550D02*
D03*
X3050D02*
D03*
X3550D02*
D03*
X2050Y-12426D02*
D03*
X2550D02*
D03*
X3050D02*
D03*
X6250Y-14474D02*
D03*
X6750D02*
D03*
X7250D02*
D03*
X7750D02*
D03*
X6250Y-12426D02*
D03*
Y-18674D02*
D03*
X6750D02*
D03*
X7250D02*
D03*
X7750D02*
D03*
X6250Y-16626D02*
D03*
X6750D02*
D03*
X7250D02*
D03*
D32*
X3550Y-16576D02*
D03*
Y-12426D02*
D03*
X7750D02*
D03*
Y-16626D02*
D03*
D33*
X12366Y-21600D02*
D03*
X10634D02*
D03*
D34*
X4600Y-23867D02*
D03*
X8200Y-25867D02*
D03*
X3600Y-24536D02*
D03*
X17800Y-24335D02*
D03*
X17200Y-20804D02*
D03*
X14800Y-1050D02*
D03*
D35*
X17063Y-18295D02*
D03*
D36*
X3751Y-22401D02*
D03*
X2649D02*
D03*
D41*
X15700Y-15000D02*
D03*
X14700D02*
D03*
X17500Y-27000D02*
D03*
X18500D02*
D03*
X15700Y-8600D02*
D03*
X14700D02*
D03*
X15700Y-9600D02*
D03*
X14700D02*
D03*
X15700Y-10600D02*
D03*
X14700D02*
D03*
X15700Y-11600D02*
D03*
X14700D02*
D03*
X15700Y-12600D02*
D03*
X7500Y-29600D02*
D03*
X6500Y-28600D02*
D03*
Y-29600D02*
D03*
X5500Y-28600D02*
D03*
Y-29600D02*
D03*
X15700Y-16000D02*
D03*
X14700Y-14000D02*
D03*
X15700D02*
D03*
D42*
X19500Y-27000D02*
D03*
X14700Y-12600D02*
D03*
X7500Y-28600D02*
D03*
X14700Y-16000D02*
D03*
D43*
X11400Y-24650D02*
D03*
Y-1250D02*
D03*
D44*
Y-27603D02*
D03*
Y-4203D02*
D03*
D45*
X11358Y-17783D02*
D03*
M02*
